<?xml version="1.0" encoding="UTF-8" standalone="no"?>
<!-- Created with Inkscape (http://www.inkscape.org/) -->

<svg
   xmlns:dc="http://purl.org/dc/elements/1.1/"
   xmlns:cc="http://creativecommons.org/ns#"
   xmlns:rdf="http://www.w3.org/1999/02/22-rdf-syntax-ns#"
   xmlns:svg="http://www.w3.org/2000/svg"
   xmlns="http://www.w3.org/2000/svg"
   xmlns:sodipodi="http://sodipodi.sourceforge.net/DTD/sodipodi-0.dtd"
   xmlns:inkscape="http://www.inkscape.org/namespaces/inkscape"
   width="787.78027"
   height="678.05212"
   id="svg2"
   version="1.1"
   inkscape:version="0.48.3.1 r9886"
   sodipodi:docname="logo_withouttext.png">
  <sodipodi:namedview
     id="base"
     pagecolor="#ffffff"
     bordercolor="#666666"
     borderopacity="1.0"
     inkscape:pageopacity="0.0"
     inkscape:pageshadow="2"
     inkscape:zoom="0.86381512"
     inkscape:cx="-22.93641"
     inkscape:cy="301.33635"
     inkscape:document-units="px"
     inkscape:current-layer="layer1"
     showgrid="false"
     inkscape:window-width="1855"
     inkscape:window-height="1056"
     inkscape:window-x="65"
     inkscape:window-y="24"
     inkscape:window-maximized="1"
     fit-margin-top="0"
     fit-margin-left="0"
     fit-margin-right="0"
     fit-margin-bottom="0" />
  <defs
     id="defs4">
    <marker
       inkscape:stockid="TriangleOutS"
       orient="auto"
       refY="0.0"
       refX="0.0"
       id="TriangleOutS"
       style="overflow:visible">
      <path
         id="path6898"
         d="M 5.77,0.0 L -2.88,5.0 L -2.88,-5.0 L 5.77,0.0 z "
         style="fill-rule:evenodd;stroke:#000000;stroke-width:1.0pt"
         transform="scale(0.2)" />
    </marker>
    <marker
       style="overflow:visible;"
       id="Arrow1Send"
       refX="0.0"
       refY="0.0"
       orient="auto"
       inkscape:stockid="Arrow1Send">
      <path
         transform="scale(0.2) rotate(180) translate(6,0)"
         style="fill-rule:evenodd;stroke:#000000;stroke-width:1.0pt;"
         d="M 0.0,0.0 L 5.0,-5.0 L -12.5,0.0 L 5.0,5.0 L 0.0,0.0 z "
         id="path6765" />
    </marker>
    <marker
       inkscape:stockid="Arrow1Mend"
       orient="auto"
       refY="0"
       refX="0"
       id="Arrow1Mend"
       style="overflow:visible">
      <path
         inkscape:connector-curvature="0"
         id="path6759"
         d="M 0,0 5,-5 -12.5,0 5,5 0,0 z"
         style="fill-rule:evenodd;stroke:#000000;stroke-width:1pt"
         transform="matrix(-0.4,0,0,-0.4,-4,0)" />
    </marker>
    <marker
       inkscape:stockid="Arrow1Mend"
       orient="auto"
       refY="0"
       refX="0"
       id="Arrow1Mend-9"
       style="overflow:visible">
      <path
         inkscape:connector-curvature="0"
         id="path6759-8"
         d="M 0,0 5,-5 -12.5,0 5,5 0,0 z"
         style="fill-rule:evenodd;stroke:#000000;stroke-width:1pt"
         transform="matrix(-0.4,0,0,-0.4,-4,0)" />
    </marker>
    <marker
       inkscape:stockid="Arrow1Mendb"
       orient="auto"
       refY="0"
       refX="0"
       id="Arrow1Mendb"
       style="overflow:visible">
      <path
         inkscape:connector-curvature="0"
         id="path7525"
         d="M 0,0 5,-5 -12.5,0 5,5 0,0 z"
         style="fill:#ff0000;fill-rule:evenodd;stroke:#ff0000;stroke-width:1pt"
         transform="matrix(-0.4,0,0,-0.4,-4,0)" />
    </marker>
    <marker
       inkscape:stockid="Arrow1Mend2"
       orient="auto"
       refY="0"
       refX="0"
       id="Arrow1Mend2"
       style="overflow:visible">
      <path
         inkscape:connector-curvature="0"
         id="path7528"
         d="M 0,0 5,-5 -12.5,0 5,5 0,0 z"
         style="fill:#ff0000;fill-rule:evenodd;stroke:#ff0000;stroke-width:1pt"
         transform="matrix(-0.4,0,0,-0.4,-4,0)" />
    </marker>
    <marker
       inkscape:stockid="Arrow1Mend2l"
       orient="auto"
       refY="0"
       refX="0"
       id="Arrow1Mend2l"
       style="overflow:visible">
      <path
         inkscape:connector-curvature="0"
         id="path7664"
         d="M 0,0 5,-5 -12.5,0 5,5 0,0 z"
         style="fill:#b22222;fill-rule:evenodd;stroke:#b22222;stroke-width:1pt"
         transform="matrix(-0.4,0,0,-0.4,-4,0)" />
    </marker>
    <marker
       inkscape:stockid="Arrow1Mendbp"
       orient="auto"
       refY="0"
       refX="0"
       id="Arrow1Mendbp"
       style="overflow:visible">
      <path
         inkscape:connector-curvature="0"
         id="path7803"
         d="M 0,0 5,-5 -12.5,0 5,5 0,0 z"
         style="fill:#b22222;fill-rule:evenodd;stroke:#b22222;stroke-width:1pt"
         transform="matrix(-0.4,0,0,-0.4,-4,0)" />
    </marker>
    <marker
       inkscape:stockid="Arrow1Mend2l"
       orient="auto"
       refY="0"
       refX="0"
       id="Arrow1Mend2l-5"
       style="overflow:visible">
      <path
         id="path7664-4"
         d="M 0,0 5,-5 -12.5,0 5,5 0,0 z"
         style="fill:#b22222;fill-rule:evenodd;stroke:#b22222;stroke-width:1pt"
         transform="matrix(-0.4,0,0,-0.4,-4,0)"
         inkscape:connector-curvature="0" />
    </marker>
    <marker
       inkscape:stockid="Arrow1Mendbp"
       orient="auto"
       refY="0"
       refX="0"
       id="Arrow1Mendbp-9"
       style="overflow:visible">
      <path
         id="path7803-9"
         d="M 0,0 5,-5 -12.5,0 5,5 0,0 z"
         style="fill:#b22222;fill-rule:evenodd;stroke:#b22222;stroke-width:1pt"
         transform="matrix(-0.4,0,0,-0.4,-4,0)"
         inkscape:connector-curvature="0" />
    </marker>
    <marker
       style="overflow:visible;"
       id="Arrow1SendJ"
       refX="0.0"
       refY="0.0"
       orient="auto"
       inkscape:stockid="Arrow1SendJ">
      <path
         transform="scale(0.2) rotate(180) translate(6,0)"
         style="stroke:#b22222;stroke-width:1.0pt;fill:#b22222;fill-rule:evenodd"
         d="M 0.0,0.0 L 5.0,-5.0 L -12.5,0.0 L 5.0,5.0 L 0.0,0.0 z "
         id="path8645" />
    </marker>
    <marker
       style="overflow:visible;"
       id="Arrow1Sendf"
       refX="0.0"
       refY="0.0"
       orient="auto"
       inkscape:stockid="Arrow1Sendf">
      <path
         transform="scale(0.2) rotate(180) translate(6,0)"
         style="stroke:#b22222;stroke-width:1.0pt;fill:#b22222;fill-rule:evenodd"
         d="M 0.0,0.0 L 5.0,-5.0 L -12.5,0.0 L 5.0,5.0 L 0.0,0.0 z "
         id="path8648" />
    </marker>
    <marker
       inkscape:stockid="TriangleOutSd"
       orient="auto"
       refY="0.0"
       refX="0.0"
       id="TriangleOutSd"
       style="overflow:visible">
      <path
         id="path9346"
         d="M 5.77,0.0 L -2.88,5.0 L -2.88,-5.0 L 5.77,0.0 z "
         style="stroke:#b22222;stroke-width:1.0pt;fill:#b22222;fill-rule:evenodd"
         transform="scale(0.2)" />
    </marker>
    <marker
       inkscape:stockid="TriangleOutSt"
       orient="auto"
       refY="0.0"
       refX="0.0"
       id="TriangleOutSt"
       style="overflow:visible">
      <path
         id="path9493"
         d="M 5.77,0.0 L -2.88,5.0 L -2.88,-5.0 L 5.77,0.0 z "
         style="stroke:#b22222;stroke-width:1.0pt;fill:#b22222;fill-rule:evenodd"
         transform="scale(0.2)" />
    </marker>
  </defs>
  <metadata
     id="metadata7">
    <rdf:RDF>
      <cc:Work
         rdf:about="">
        <dc:format>image/svg+xml</dc:format>
        <dc:type
           rdf:resource="http://purl.org/dc/dcmitype/StillImage" />
        <dc:title></dc:title>
      </cc:Work>
    </rdf:RDF>
  </metadata>
  <g
     inkscape:label="Layer 1"
     inkscape:groupmode="layer"
     id="layer1"
     transform="translate(-130.35243,-342.51673)">
    <path
       sodipodi:type="arc"
       style="fill:none;stroke:#b22222;stroke-width:5.29945052;stroke-miterlimit:4;stroke-opacity:1;stroke-dasharray:none;stroke-dashoffset:0"
       id="path5844-7"
       sodipodi:cx="286.07144"
       sodipodi:cy="244.45163"
       sodipodi:rx="24.642857"
       sodipodi:ry="24.642857"
       d="m 310.7143,244.45163 c 0,13.60987 -11.03298,24.64286 -24.64286,24.64286 -13.60987,0 -24.64285,-11.03299 -24.64285,-24.64286 0,-13.60987 11.03298,-24.64286 24.64285,-24.64286 13.60988,0 24.64286,11.03299 24.64286,24.64286 z"
       transform="matrix(-1.1868812,0,0,1.0800244,839.5729,276.03339)" />
    <path
       sodipodi:type="arc"
       style="fill:none;stroke:#b22222;stroke-width:5.49181446;stroke-miterlimit:4;stroke-opacity:1;stroke-dasharray:none;stroke-dashoffset:0"
       id="path6614-2"
       sodipodi:cx="170.71428"
       sodipodi:cy="328.38019"
       sodipodi:rx="31.428572"
       sodipodi:ry="31.428572"
       d="m 202.14285,328.38019 c 0,17.35752 -14.07105,31.42857 -31.42857,31.42857 -17.35752,0 -31.42857,-14.07105 -31.42857,-31.42857 0,0 0,0 0,0"
       transform="matrix(1.1269843,0.65322591,0.71785558,-1.0255202,71.87803,766.77841)"
       sodipodi:start="0"
       sodipodi:end="3.1415927"
       sodipodi:open="true" />
    <path
       style="fill:none;stroke:#b22222;stroke-width:7;stroke-linecap:butt;stroke-linejoin:miter;stroke-miterlimit:4;stroke-opacity:1;stroke-dasharray:none"
       d="m 576.27707,420.06199 64.25002,69.80954 -55.61943,40.14049 -62.33211,-67.19169 z"
       id="path6626-1"
       inkscape:connector-curvature="0" />
    <path
       style="fill:none;stroke:#b22222;stroke-width:7;stroke-linecap:butt;stroke-linejoin:miter;stroke-miterlimit:4;stroke-opacity:1;stroke-dasharray:none"
       d="m 584.90766,429.6608 64.25002,-48.86668 42.19405,46.24881 -62.33211,47.99407"
       id="path6628-3"
       inkscape:connector-curvature="0" />
    <path
       style="fill:none;stroke:#b22222;stroke-width:7;stroke-linecap:butt;stroke-linejoin:miter;stroke-miterlimit:4;stroke-opacity:1;stroke-dasharray:none"
       d="m 692.31068,427.04293 49.86569,-68.93692 -70.96271,47.12145 63.29107,-60.21073 -83.42914,35.77739"
       id="path6630-8"
       inkscape:connector-curvature="0" />
    <path
       style="fill:none;stroke:#b22222;stroke-width:7;stroke-linecap:round;stroke-linejoin:miter;stroke-miterlimit:4;stroke-opacity:1;stroke-dasharray:none"
       d="m 584.35818,530.63461 -14.7938,2.61786 -49.8657,-54.97501 2.32207,-14.95229"
       id="path6632-9"
       inkscape:connector-curvature="0"
       sodipodi:nodetypes="cccc" />
    <path
       style="fill:none;stroke:#b22222;stroke-width:7;stroke-linecap:butt;stroke-linejoin:miter;stroke-miterlimit:4;stroke-opacity:1;stroke-dasharray:none"
       d="m 569.28963,533.24765 -15.10744,18.59299"
       id="path6634-4"
       inkscape:connector-curvature="0"
       sodipodi:nodetypes="cc" />
    <path
       sodipodi:nodetypes="cc"
       style="fill:none;stroke:#b22222;stroke-width:7;stroke-linecap:butt;stroke-linejoin:miter;stroke-miterlimit:4;stroke-opacity:1;stroke-dasharray:none"
       d="m 521.61659,478.52748 -24.12077,14.28634"
       id="path6636-9"
       inkscape:connector-curvature="0" />
    <path
       style="fill:none;stroke:#b22222;stroke-width:7;stroke-linecap:butt;stroke-linejoin:miter;stroke-miterlimit:4;stroke-opacity:1;stroke-dasharray:none"
       d="M 465.18177,520.44675 380.01063,658.95219"
       id="path6638-6"
       inkscape:connector-curvature="0" />
    <path
       style="fill:none;stroke:#b22222;stroke-width:7;stroke-linecap:butt;stroke-linejoin:miter;stroke-miterlimit:4;stroke-opacity:1;stroke-dasharray:none"
       d="M 535.51663,561.94837 461.8848,671.45268"
       id="path6640-7"
       inkscape:connector-curvature="0"
       sodipodi:nodetypes="cc" />
    <path
       sodipodi:type="arc"
       style="fill:none;stroke:#b22222;stroke-width:3.3163085;stroke-miterlimit:4;stroke-opacity:1;stroke-dasharray:none;stroke-dashoffset:0"
       id="path6642-0"
       sodipodi:cx="184.59109"
       sodipodi:cy="435.07834"
       sodipodi:rx="35.608482"
       sodipodi:ry="35.608482"
       d="m 150.92261,423.48535 c 3.28556,-9.54194 10.46563,-17.24163 19.75514,-21.18479"
       transform="matrix(-0.3037623,-1.9564678,-2.2363956,0.26322909,1507.4588,776.28145)"
       sodipodi:start="3.4732052"
       sodipodi:end="4.3109633"
       sodipodi:open="true" />
    <path
       sodipodi:type="arc"
       style="fill:none;stroke:#b22222;stroke-width:4.60523701;stroke-miterlimit:4;stroke-opacity:1;stroke-dasharray:none;stroke-dashoffset:0"
       id="path6642-8-5"
       sodipodi:cx="184.59109"
       sodipodi:cy="435.07834"
       sodipodi:rx="35.608482"
       sodipodi:ry="35.608482"
       d="m 220.17789,433.83562 c 0.67788,19.41192 -14.32606,35.78584 -33.72319,36.8024"
       transform="matrix(-0.32799023,-1.3019188,-1.7117866,0.24945671,1314.8797,670.72374)"
       sodipodi:start="6.2482787"
       sodipodi:end="7.8016217"
       sodipodi:open="true" />
    <path
       sodipodi:type="arc"
       style="fill:#b22222;fill-opacity:1;stroke:#b22222;stroke-width:1.22702932;stroke-miterlimit:4;stroke-opacity:1;stroke-dasharray:none;stroke-dashoffset:0"
       id="path6683-5"
       sodipodi:cx="112.14626"
       sodipodi:cy="325.38785"
       sodipodi:rx="4.5022221"
       sodipodi:ry="4.5022221"
       d="m 116.64849,325.38785 c 0,2.48651 -2.01572,4.50222 -4.50223,4.50222 -2.48651,0 -4.50222,-2.01571 -4.50222,-4.50222 0,-2.48651 2.01571,-4.50222 4.50222,-4.50222 2.48651,0 4.50223,2.01571 4.50223,4.50222 z"
       transform="matrix(-0.85434225,0,0,0.77742447,702.76176,216.48026)" />
    <path
       sodipodi:type="arc"
       style="fill:#b22222;fill-opacity:1;stroke:#b22222;stroke-width:1.22702932;stroke-miterlimit:4;stroke-opacity:1;stroke-dasharray:none;stroke-dashoffset:0"
       id="path6683-7-0"
       sodipodi:cx="112.14626"
       sodipodi:cy="325.38785"
       sodipodi:rx="4.5022221"
       sodipodi:ry="4.5022221"
       d="m 116.64849,325.38785 c 0,2.48651 -2.01572,4.50222 -4.50223,4.50222 -2.48651,0 -4.50222,-2.01571 -4.50222,-4.50222 0,-2.48651 2.01571,-4.50222 4.50222,-4.50222 2.48651,0 4.50223,2.01571 4.50223,4.50222 z"
       transform="matrix(-0.85434225,0,0,0.77742447,686.82653,199.97963)" />
    <path
       sodipodi:type="arc"
       style="fill:#b22222;fill-opacity:1;stroke:#b22222;stroke-width:1.22702932;stroke-miterlimit:4;stroke-opacity:1;stroke-dasharray:none;stroke-dashoffset:0"
       id="path6683-7-7-1"
       sodipodi:cx="112.14626"
       sodipodi:cy="325.38785"
       sodipodi:rx="4.5022221"
       sodipodi:ry="4.5022221"
       d="m 116.64849,325.38785 c 0,2.48651 -2.01572,4.50222 -4.50223,4.50222 -2.48651,0 -4.50222,-2.01571 -4.50222,-4.50222 0,-2.48651 2.01571,-4.50222 4.50222,-4.50222 2.48651,0 4.50223,2.01571 4.50223,4.50222 z"
       transform="matrix(-0.85434225,0,0,0.77742447,673.63874,185.47905)" />
    <path
       sodipodi:type="arc"
       style="fill:#b22222;fill-opacity:1;stroke:#b22222;stroke-width:1.22702932;stroke-miterlimit:4;stroke-opacity:1;stroke-dasharray:none;stroke-dashoffset:0"
       id="path6683-7-76-7"
       sodipodi:cx="112.14626"
       sodipodi:cy="325.38785"
       sodipodi:rx="4.5022221"
       sodipodi:ry="4.5022221"
       d="m 116.64849,325.38785 c 0,2.48651 -2.01572,4.50222 -4.50223,4.50222 -2.48651,0 -4.50222,-2.01571 -4.50222,-4.50222 0,-2.48651 2.01571,-4.50222 4.50222,-4.50222 2.48651,0 4.50223,2.01571 4.50223,4.50222 z"
       transform="matrix(-0.85434225,0,0,0.77742447,717.59804,231.98088)" />
    <path
       style="fill:none;stroke:#b22222;stroke-width:7;stroke-linecap:butt;stroke-linejoin:miter;stroke-miterlimit:4;stroke-opacity:1;stroke-dasharray:none"
       d="M 623.98471,502.94606 558.59525,434.44338"
       id="path6735-1"
       inkscape:connector-curvature="0" />
    <path
       sodipodi:type="arc"
       style="fill:#b22222;fill-opacity:1;stroke:#b22222;stroke-width:1.3047291;stroke-miterlimit:4;stroke-opacity:1;stroke-dasharray:none;stroke-dashoffset:0"
       id="path6683-7-8-8"
       sodipodi:cx="112.14626"
       sodipodi:cy="325.38785"
       sodipodi:rx="4.5022221"
       sodipodi:ry="4.5022221"
       d="m 116.64849,325.38785 c 0,2.48651 -2.01572,4.50222 -4.50223,4.50222 -2.48651,0 -4.50222,-2.01571 -4.50222,-4.50222 0,-2.48651 2.01571,-4.50222 4.50222,-4.50222 2.48651,0 4.50223,2.01571 4.50223,4.50222 z"
       transform="matrix(-0.80100517,0,0,0.73337135,588.78101,301.76623)" />
    <path
       sodipodi:nodetypes="cc"
       style="fill:#ff0000;fill-opacity:1;stroke:#b22222;stroke-width:5;stroke-linecap:butt;stroke-linejoin:miter;stroke-miterlimit:4;stroke-opacity:1;stroke-dasharray:none;marker-end:url(#TriangleOutSt)"
       d="m 498.97547,540.82253 9.07677,-6.4582"
       id="path6744-4"
       inkscape:connector-curvature="0" />
    <path
       style="fill:#ff0000;fill-opacity:1;stroke:#b22222;stroke-width:5;stroke-linecap:butt;stroke-linejoin:miter;stroke-miterlimit:4;stroke-opacity:1;stroke-dasharray:none;marker-end:url(#TriangleOutSd)"
       d="m 498.37971,540.58845 2.49534,-17.84199"
       id="path6744-0-0"
       inkscape:connector-curvature="0"
       inkscape:transform-center-x="10.232322"
       inkscape:transform-center-y="19.236766"
       sodipodi:nodetypes="cc" />
    <rect
       transform="scale(-1,1)"
       style="fill:none;stroke:#b22222;stroke-width:5;stroke-miterlimit:4;stroke-opacity:1;stroke-dasharray:none;stroke-dashoffset:0"
       id="rect7280-8"
       width="6.593894"
       height="17.000668"
       x="-469.65268"
       y="962.46411" />
    <rect
       transform="scale(-1,1)"
       style="fill:none;stroke:#b22222;stroke-width:7;stroke-miterlimit:4;stroke-opacity:1;stroke-dasharray:none;stroke-dashoffset:0"
       id="rect7442-2"
       width="23.62812"
       height="30.001177"
       x="-322.31406"
       y="598.94983" />
    <path
       sodipodi:type="arc"
       style="fill:none;stroke:#b22222;stroke-width:5.79999866;stroke-miterlimit:4;stroke-opacity:1;stroke-dasharray:none;stroke-dashoffset:0"
       id="path7440-8"
       sodipodi:cx="215.69736"
       sodipodi:cy="477.2355"
       sodipodi:rx="72.854134"
       sodipodi:ry="72.854134"
       d="m 158.28752,432.38202 c 24.77189,-31.70658 70.55674,-37.32825 102.26332,-12.55636 5.01712,3.91981 9.49877,8.48037 13.33042,13.56513"
       transform="matrix(-1.2558008,0,0,1.1598973,583.69562,159.52361)"
       sodipodi:start="3.8048178"
       sodipodi:end="5.6374135"
       sodipodi:open="true" />
    <rect
       transform="scale(-1,1)"
       style="fill:none;stroke:#b22222;stroke-width:7;stroke-miterlimit:4;stroke-opacity:1;stroke-dasharray:none;stroke-dashoffset:0"
       id="rect7214-7"
       width="76.379272"
       height="334.01312"
       x="-461.8848"
       y="662.00903" />
    <rect
       transform="scale(-1,1)"
       style="fill:none;stroke:#b22222;stroke-width:5;stroke-miterlimit:4;stroke-opacity:1;stroke-dasharray:none;stroke-dashoffset:0"
       id="rect7280-4-5"
       width="8.7231731"
       height="17.000668"
       x="-162.81796"
       y="962.21411" />
    <rect
       transform="scale(-1,1)"
       style="fill:none;stroke:#b22222;stroke-width:7;stroke-miterlimit:4;stroke-opacity:1;stroke-dasharray:none;stroke-dashoffset:0"
       id="rect7214-4-4"
       width="76.379272"
       height="334.01312"
       x="-239.61565"
       y="662.45239" />
    <path
       sodipodi:type="arc"
       style="fill:#ffffff;fill-opacity:1;stroke:#b22222;stroke-width:5.46585816;stroke-miterlimit:4;stroke-opacity:1;stroke-dasharray:none;stroke-dashoffset:0"
       id="path7234-7"
       sodipodi:cx="187.86543"
       sodipodi:cy="423.61813"
       sodipodi:rx="19.236767"
       sodipodi:ry="19.236767"
       d="m 207.1022,423.61813 c 0,10.62418 -8.61259,19.23677 -19.23677,19.23677 -10.62417,0 -19.23676,-8.61259 -19.23676,-19.23677 0,-10.62417 8.61259,-19.23676 19.23676,-19.23676 10.62418,0 19.23677,8.61259 19.23677,19.23676 z"
       transform="matrix(-1.3425378,0,0,1.221667,672.88943,147.4321)" />
    <path
       sodipodi:type="arc"
       style="fill:#ffffff;fill-opacity:1;stroke:#b22222;stroke-width:5.46585816;stroke-miterlimit:4;stroke-opacity:1;stroke-dasharray:none;stroke-dashoffset:0"
       id="path7234-1-4"
       sodipodi:cx="187.86543"
       sodipodi:cy="423.61813"
       sodipodi:rx="19.236767"
       sodipodi:ry="19.236767"
       d="m 207.1022,423.61813 c 0,10.62418 -8.61259,19.23677 -19.23677,19.23677 -10.62417,0 -19.23676,-8.61259 -19.23676,-19.23677 0,-10.62417 8.61259,-19.23676 19.23676,-19.23676 10.62418,0 19.23677,8.61259 19.23677,19.23676 z"
       transform="matrix(-1.3425378,0,0,1.221667,453.64244,147.93214)" />
    <rect
       transform="scale(-1,1)"
       style="fill:none;stroke:#b22222;stroke-width:7;stroke-miterlimit:4;stroke-opacity:1;stroke-dasharray:none;stroke-dashoffset:0"
       id="rect7254-8"
       width="20.880665"
       height="95.003723"
       x="-490.82071"
       y="922.40582" />
    <rect
       transform="scale(-1,1)"
       style="fill:none;stroke:#b22222;stroke-width:7;stroke-miterlimit:4;stroke-opacity:1;stroke-dasharray:none;stroke-dashoffset:0"
       id="rect7254-6-2"
       width="20.880665"
       height="95.003723"
       x="-153.73309"
       y="923.06512" />
    <path
       style="fill:none;stroke:#b22222;stroke-width:7;stroke-linecap:butt;stroke-linejoin:miter;stroke-miterlimit:4;stroke-opacity:1;stroke-dasharray:none"
       d="m 422.32145,641.45149 0,-18.50072"
       id="path7318-3"
       inkscape:connector-curvature="0" />
    <path
       style="fill:none;stroke:#b22222;stroke-width:7;stroke-linecap:butt;stroke-linejoin:miter;stroke-miterlimit:4;stroke-opacity:1;stroke-dasharray:none"
       d="m 201.97549,641.20147 0,-18.50071"
       id="path7318-7-8"
       inkscape:connector-curvature="0" />
    <path
       sodipodi:type="arc"
       style="fill:#b22222;fill-opacity:1;stroke:#b22222;stroke-width:0.78083688;stroke-miterlimit:4;stroke-opacity:1;stroke-dasharray:none;stroke-dashoffset:0"
       id="path7396-7"
       sodipodi:cx="150.21049"
       sodipodi:cy="433.03189"
       sodipodi:rx="10.232323"
       sodipodi:ry="10.232323"
       d="m 160.44282,433.03189 c 0,5.65116 -4.58117,10.23232 -10.23233,10.23232 -5.65115,0 -10.23232,-4.58116 -10.23232,-10.23232 0,-5.65115 4.58117,-10.23232 10.23232,-10.23232 5.65116,0 10.23233,4.58117 10.23233,10.23232 z"
       transform="matrix(-1.3425378,0,0,1.221667,616.29184,144.43199)" />
    <path
       sodipodi:type="arc"
       style="fill:#b22222;fill-opacity:1;stroke:#b22222;stroke-width:0.78083688;stroke-miterlimit:4;stroke-opacity:1;stroke-dasharray:none;stroke-dashoffset:0"
       id="path7396-8-3"
       sodipodi:cx="150.21049"
       sodipodi:cy="433.03189"
       sodipodi:rx="10.232323"
       sodipodi:ry="10.232323"
       d="m 160.44282,433.03189 c 0,5.65116 -4.58117,10.23232 -10.23233,10.23232 -5.65115,0 -10.23232,-4.58116 -10.23232,-10.23232 0,-5.65115 4.58117,-10.23232 10.23232,-10.23232 5.65116,0 10.23233,4.58117 10.23233,10.23232 z"
       transform="matrix(-1.3425378,0,0,1.221667,409.13366,144.932)" />
    <path
       sodipodi:type="arc"
       style="fill:none;stroke:#b22222;stroke-width:12.71138873;stroke-miterlimit:4;stroke-opacity:1;stroke-dasharray:none;stroke-dashoffset:0"
       id="path7416-7"
       sodipodi:cx="55.663834"
       sodipodi:cy="552.54541"
       sodipodi:rx="124.42504"
       sodipodi:ry="124.42504"
       d="m -68.761208,552.5454 c 4e-6,-68.71805 55.706995,-124.42503 124.425047,-124.42503 68.718051,0 124.425031,55.70699 124.425031,124.42504"
       transform="matrix(-0.58747725,0,0,0.51620122,345.24728,561.46078)"
       sodipodi:start="3.1415927"
       sodipodi:end="6.2831853"
       sodipodi:open="true" />
    <path
       style="fill:none;stroke:#b22222;stroke-width:7;stroke-linecap:butt;stroke-linejoin:miter;stroke-miterlimit:4;stroke-opacity:1;stroke-dasharray:none"
       d="m 386.05503,908.96199 -146.16465,0"
       id="path7418-6"
       inkscape:connector-curvature="0" />
    <path
       style="fill:none;stroke:#b22222;stroke-width:7;stroke-linecap:butt;stroke-linejoin:miter;stroke-miterlimit:4;stroke-opacity:1;stroke-dasharray:none"
       d="m 386.05503,996.46543 -146.16465,0"
       id="path7418-1-0"
       inkscape:connector-curvature="0" />
    <path
       style="fill:none;stroke:#b22222;stroke-width:7;stroke-linecap:butt;stroke-linejoin:miter;stroke-miterlimit:4;stroke-opacity:1;stroke-dasharray:none"
       d="m 310.77474,598.19978 0,-18.50071"
       id="path7318-72-6"
       inkscape:connector-curvature="0" />
    <path
       style="fill:none;stroke:#b22222;stroke-width:7;stroke-linecap:butt;stroke-linejoin:miter;stroke-miterlimit:4;stroke-opacity:1;stroke-dasharray:7,28;stroke-dashoffset:0"
       d="m 397.04485,705.95403 0,279.96462"
       id="path7462-5-7"
       inkscape:connector-curvature="0" />
    <path
       style="fill:none;stroke:#b22222;stroke-width:7;stroke-linecap:butt;stroke-linejoin:miter;stroke-miterlimit:4;stroke-opacity:1;stroke-dasharray:7.00000001, 28.00000005;stroke-dashoffset:0"
       d="m 226.70259,705.95404 0,272.65175"
       id="path7462-5-2-8"
       inkscape:connector-curvature="0" />
    <path
       style="fill:none;stroke:#b22222;stroke-width:7;stroke-linecap:butt;stroke-linejoin:miter;stroke-miterlimit:4;stroke-opacity:1;stroke-dasharray:7.00000001, 28.00000003;stroke-dashoffset:0"
       d="m 174.1494,706.95396 0,274.08461"
       id="path7462-5-2-2-9"
       inkscape:connector-curvature="0" />
    <path
       style="fill:none;stroke:#b22222;stroke-width:7;stroke-linecap:butt;stroke-linejoin:miter;stroke-miterlimit:4;stroke-opacity:1;stroke-dasharray:7, 28;stroke-dashoffset:0"
       d="m 449.17382,705.40919 0,279.96462"
       id="path7462-5-7-6"
       inkscape:connector-curvature="0" />
  </g>
</svg>
